<svg viewBox="0 0 200 180" xmlns="http://www.w3.org/2000/svg">
  <!-- AA Mountain Logo -->
  <!-- Left A -->
  <path d="M30,130 L62,40 L78,82" stroke="#4CAF50" stroke-width="8" stroke-linecap="round" stroke-linejoin="round" fill="none"/>
  <path d="M30,130 L62,40 L78,82" stroke="#FFC107" stroke-width="8" stroke-linecap="round" stroke-linejoin="round" fill="none" transform="translate(6,4)"/>
  <path d="M30,130 L62,40 L78,82" stroke="#2196F3" stroke-width="8" stroke-linecap="round" stroke-linejoin="round" fill="none" transform="translate(12,8)"/>
  <path d="M30,130 L62,40 L78,82" stroke="#E91E63" stroke-width="8" stroke-linecap="round" stroke-linejoin="round" fill="none" transform="translate(18,12)"/>

  <!-- Right A -->
  <path d="M82,130 L114,40 L146,130" stroke="#4CAF50" stroke-width="8" stroke-linecap="round" stroke-linejoin="round" fill="none"/>
  <path d="M82,130 L114,40 L146,130" stroke="#FFC107" stroke-width="8" stroke-linecap="round" stroke-linejoin="round" fill="none" transform="translate(4,3)"/>
  <path d="M82,130 L114,40 L146,130" stroke="#2196F3" stroke-width="8" stroke-linecap="round" stroke-linejoin="round" fill="none" transform="translate(8,6)"/>
  <path d="M82,130 L114,40 L146,130" stroke="#E91E63" stroke-width="8" stroke-linecap="round" stroke-linejoin="round" fill="none" transform="translate(12,9)"/>

  <!-- Crossbars -->
  <line x1="50" y1="100" x2="78" y2="100" stroke="#4CAF50" stroke-width="5" stroke-linecap="round"/>
  <line x1="100" y1="100" x2="140" y2="100" stroke="#2196F3" stroke-width="5" stroke-linecap="round"/>

  <!-- Dots at peaks -->
  <circle cx="62" cy="38" r="5" fill="#4CAF50"/>
  <circle cx="68" cy="42" r="5" fill="#FFC107"/>
  <circle cx="74" cy="46" r="5" fill="#2196F3"/>
  <circle cx="80" cy="50" r="5" fill="#E91E63"/>

  <circle cx="114" cy="38" r="5" fill="#4CAF50"/>
  <circle cx="118" cy="41" r="5" fill="#FFC107"/>
  <circle cx="122" cy="44" r="5" fill="#2196F3"/>
  <circle cx="126" cy="47" r="5" fill="#E91E63"/>

  <!-- Company name -->
  <text x="100" y="158" text-anchor="middle" font-family="Inter, Arial, sans-serif" font-size="20" font-weight="700" fill="#333">AA Alive</text>
  <text x="100" y="174" text-anchor="middle" font-family="Inter, Arial, sans-serif" font-size="10" fill="#777">(1204108-D)</text>
</svg>
